<?xml version="1.0" encoding="iso-8859-1"?>
<!-- Generator: Adobe Illustrator 19.0.0, SVG Export Plug-In . SVG Version: 6.00 Build 0)  -->
<svg version="1.1" id="Capa_1" xmlns="http://www.w3.org/2000/svg" xmlns:xlink="http://www.w3.org/1999/xlink" x="0px" y="0px"
	 viewBox="0 0 512 512" style="enable-background:new 0 0 512 512;" xml:space="preserve">
<path style="fill:#B3B3B3;" d="M271.362,195.145c51.051,51.051,71.081,113.791,44.7,140.147
	c-26.381,26.356-97.243,61.492-171.791-13.056s-39.403-145.469-13.056-171.825S220.312,144.094,271.362,195.145z"/>
<ellipse transform="matrix(-0.7071 -0.7071 0.7071 -0.7071 210.0538 572.7921)" style="fill:#D3D3D3;" cx="223.656" cy="242.892" rx="130.725" ry="67.471"/>
<g>
	<path style="fill:#777777;" d="M336.456,289.234h-16.868V141.193l-168.451,4.664l-0.455-16.868l177.113-4.909
		c4.656-0.127,8.535,3.551,8.662,8.206c0,0.076,0,0.152,0,0.228L336.456,289.234L336.456,289.234z"/>
	<path style="fill:#777777;" d="M194.588,309.72l126.501-182.013l13.849,9.623L208.437,319.343L194.588,309.72z"/>
</g>
<circle style="fill:#454545;" cx="328.022" cy="132.523" r="16.868"/>
<path style="fill:#B3B3B3;" d="M114.761,351.755l-8.434,92.773h84.34L160.987,355.5L114.761,351.755z"/>
<g>
	<path style="fill:#454545;" d="M64.157,444.528h160.245v59.038H64.157C64.157,503.566,64.157,444.528,64.157,444.528z"/>
	<circle style="fill:#454545;" cx="144.305" cy="339.129" r="29.519"/>
</g>
<g>
	<path style="fill:#FFB546;" d="M315.43,71.68l37.953-37.953l11.926,11.926l-37.953,37.953L315.43,71.68z"/>
	<path style="fill:#FFB546;" d="M370.242,126.501l75.906-75.906l11.926,11.926l-75.906,75.906L370.242,126.501z"/>
	<path style="fill:#FFB546;" d="M378.676,67.472l42.17-42.17l11.926,11.926l-42.17,42.17L378.676,67.472z"/>
	<path style="fill:#FFB546;" d="M437.722,16.868L454.59,0l11.926,11.926l-16.868,16.868L437.722,16.868z"/>
	<path style="fill:#FFB546;" d="M463.016,33.727l29.519-29.519l11.926,11.926l-29.519,29.519L463.016,33.727z"/>
	<path style="fill:#FFB546;" d="M361.817,25.302l16.868-16.868L390.61,20.36l-16.868,16.868L361.817,25.302z"/>
	<path style="fill:#FFB546;" d="M285.911,101.207l12.651-12.651l11.926,11.926l-12.651,12.651L285.911,101.207z"/>
</g>
<path style="fill:#D95354;" d="M446.097,216.812h-16.868c0-13.975-11.327-25.302-25.302-25.302v-16.868
	c13.975,0,25.302-11.327,25.302-25.302h16.868c0,13.975,11.327,25.302,25.302,25.302v16.868
	C457.432,191.51,446.097,202.837,446.097,216.812z M429.229,183.076c3.197,2.404,6.03,5.237,8.434,8.434
	c2.404-3.196,5.237-6.03,8.434-8.434c-3.196-2.404-6.03-5.237-8.434-8.434c-2.412,3.196-5.254,6.039-8.459,8.434H429.229z"/>
<g>
	<path style="fill:#168DE2;" d="M41.276,39.699h16.868v16.868H41.276V39.699z"/>
	<path style="fill:#168DE2;" d="M7.54,39.699h16.868v16.868H7.54L7.54,39.699z"/>
	<path style="fill:#168DE2;" d="M24.408,56.567h16.868v16.868H24.408V56.567z"/>
	<path style="fill:#168DE2;" d="M24.408,22.831h16.868v16.868H24.408V22.831z"/>
</g>
<path style="fill:#FFB546;" d="M58.144,191.51h16.868v16.868H58.144V191.51z"/>
<path d="M283.929,355.339c-33.137,0-76.251-21.11-113.943-58.81c-55.175-55.175-74.826-121.98-44.725-152.073l0,0
	c30.092-30.101,96.898-10.45,152.073,44.725s74.826,121.972,44.734,152.073C312.529,350.793,299.296,355.339,283.929,355.339z
	 M137.187,156.382c-22.628,22.628-2.142,81.345,44.725,128.221c46.884,46.876,105.602,67.328,128.23,44.725
	c22.628-22.628,2.142-81.345-44.734-128.221S159.815,133.754,137.187,156.382L137.187,156.382z"/>
<path d="M238.538,375.378c-30.345,0-65.144-12.094-100.229-47.18C60.48,250.37,95.734,173.967,125.253,144.44
	c15.088-15.088,39.707-18.2,69.336-8.729c27.731,8.847,57.106,27.84,82.737,53.463c25.631,25.631,44.607,55.006,53.454,82.737
	c9.454,29.628,6.342,54.264-8.754,69.344C305.815,357.456,275.478,375.378,238.538,375.378z M163.45,147.274
	c-11.15,0-20.233,3.062-26.272,9.1c-2.994,2.994-72.422,74.413,13.056,159.899c85.428,85.444,156.88,16.041,159.866,13.056
	c10.264-10.256,11.942-29.316,4.613-52.291c-8.038-25.201-25.546-52.172-49.313-75.931c-23.767-23.758-50.73-41.276-75.939-49.322
	C180.023,148.766,171.235,147.274,163.45,147.274z"/>
<path d="M336.464,289.242h-16.868v-148.05l-168.443,4.664l-0.472-16.859l177.113-4.909c2.286-0.11,4.487,0.801,6.115,2.387
	c1.628,1.586,2.556,3.77,2.556,6.047V289.242z"/>
<rect x="153.954" y="215.087" transform="matrix(-0.5704 0.8214 -0.8214 -0.5704 599.3995 133.5302)" width="221.65" height="16.868"/>
<circle cx="328.022" cy="132.523" r="16.868"/>
<path d="M190.658,452.962h-84.34c-2.37,0-4.63-0.995-6.224-2.741c-1.594-1.754-2.387-4.09-2.176-6.46l8.434-92.773l16.8,1.535
	l-7.599,83.572h63.406l-21.608-64.806l15.999-5.339l25.302,75.906c0.86,2.572,0.422,5.406-1.164,7.599
	C195.904,451.647,193.374,452.962,190.658,452.962z"/>
<path d="M224.394,512H64.149c-4.656,0-8.434-3.77-8.434-8.434v-59.038c0-4.664,3.778-8.434,8.434-8.434h160.245
	c4.656,0,8.434,3.77,8.434,8.434v59.038C232.828,508.23,229.058,512,224.394,512z M72.583,495.132H215.96v-42.17H72.583
	C72.583,452.962,72.583,495.132,72.583,495.132z"/>
<path d="M144.271,377.057c-20.925,0-37.953-17.028-37.953-37.953c0-20.925,17.028-37.953,37.953-37.953
	c20.925,0,37.953,17.028,37.953,37.953C182.224,360.029,165.204,377.057,144.271,377.057z M144.271,318.019
	c-11.622,0-21.085,9.454-21.085,21.085s9.463,21.085,21.085,21.085c11.622,0,21.085-9.454,21.085-21.085
	S155.902,318.019,144.271,318.019z"/>
<g>
</g>
<g>
</g>
<g>
</g>
<g>
</g>
<g>
</g>
<g>
</g>
<g>
</g>
<g>
</g>
<g>
</g>
<g>
</g>
<g>
</g>
<g>
</g>
<g>
</g>
<g>
</g>
<g>
</g>
</svg>
