<?xml version="1.0" encoding="iso-8859-1"?>
<!-- Generator: Adobe Illustrator 19.0.0, SVG Export Plug-In . SVG Version: 6.00 Build 0)  -->
<svg version="1.1" id="Capa_1" xmlns="http://www.w3.org/2000/svg" xmlns:xlink="http://www.w3.org/1999/xlink" x="0px" y="0px"
	 viewBox="0 0 512 512" style="enable-background:new 0 0 512 512;" xml:space="preserve">
<g>
	<path style="fill:#777777;" d="M188.852,276.984h-50.361c0.042,27.799,22.562,50.319,50.361,50.361h27.799v-50.361H188.852z"/>
	<path style="fill:#777777;" d="M323.148,276.984h-23.342v50.361h23.342c27.816,0,50.361-22.545,50.361-50.361H323.148z"/>
</g>
<g>
	<path style="fill:#B3B3B3;" d="M188.852,368.522h50.361v126.691h-50.361V368.522z"/>
	<path style="fill:#B3B3B3;" d="M272.787,368.522h50.361v126.691h-50.361V368.522z"/>
</g>
<g>
	<path style="fill:#D3D3D3;" d="M272.787,345.81v-60.433h50.361v30.216v70.505h-50.361V345.81z"/>
	<path style="fill:#D3D3D3;" d="M239.213,345.81v40.289h-50.361v-70.505v-30.216h50.361V345.81z"/>
	<path style="fill:#D3D3D3;" d="M188.852,134.295c-27.816,0-50.361,22.545-50.361,50.361v92.328h50.361c0,0,31.996,0.159,31.996,0
		V134.295H188.852z"/>
	<path style="fill:#D3D3D3;" d="M323.148,134.295h-23.342v142.689h73.703v-92.328C373.508,156.84,350.963,134.295,323.148,134.295z"
		/>
</g>
<path style="fill:#B3B3B3;" d="M323.148,302.164H188.852V134.295h134.295V302.164z"/>
<rect x="423.869" y="50.361" width="16.787" height="16.787"/>
<rect x="457.443" y="50.361" width="16.787" height="16.787"/>
<rect x="440.656" y="33.574" width="16.787" height="16.787"/>
<rect x="440.656" y="67.148" width="16.787" height="16.787"/>
<rect x="37.77" y="92.328" width="16.787" height="16.787"/>
<path style="fill:#777777;" d="M222.426,201.443h67.148v67.148h-67.148V201.443z"/>
<circle style="fill:#168DE2;" cx="256" cy="67.148" r="58.754"/>
<g>
	<path style="fill:#777777;" d="M239.213,495.213v8.393h-67.148v-8.393c-0.025-11.994,6.387-23.074,16.787-29.041v0.084
		c1.225-0.713,2.484-1.351,3.777-1.93h0.084c1.343-0.562,2.711-1.041,4.113-1.427c1.402-0.428,2.829-0.739,4.281-0.923
		c1.502-0.235,3.013-0.353,4.532-0.336C224.18,461.639,239.213,476.672,239.213,495.213z"/>
	<path style="fill:#777777;" d="M310.893,461.975c1.452,0.185,2.879,0.495,4.281,0.923c1.402,0.386,2.77,0.865,4.113,1.427h0.084
		c1.293,0.579,2.552,1.217,3.777,1.93v-0.084c2.535,1.469,4.868,3.248,6.967,5.288c6.278,6.312,9.804,14.848,9.82,23.753v8.393
		h-67.148v-8.393c0-18.541,15.033-33.574,33.574-33.574C307.88,461.623,309.391,461.74,310.893,461.975z"/>
</g>
<g>
	<path style="fill:#454545;" d="M323.148,268.59h50.361v16.787h-50.361V268.59z"/>
	<path style="fill:#454545;" d="M138.492,268.59h50.361v16.787h-50.361V268.59z"/>
</g>
<path style="fill:#D3D3D3;" d="M289.574,276.984h-67.148c-4.633,0-8.393-3.76-8.393-8.393v-67.148c0-4.633,3.76-8.393,8.393-8.393
	h67.148c4.633,0,8.393,3.76,8.393,8.393v67.148C297.967,273.223,294.207,276.984,289.574,276.984z M230.82,260.197h50.361v-50.361
	H230.82V260.197z"/>
<g>
	<path style="fill:#454545;" d="M331.541,75.541h-25.18V58.754h16.787V8.393h16.787v58.754
		C339.934,71.781,336.174,75.541,331.541,75.541z"/>
	<path style="fill:#454545;" d="M256,134.295c-37.082,0-67.148-30.065-67.148-67.148S218.918,0,256,0s67.148,30.065,67.148,67.148
		C323.106,104.213,293.065,134.253,256,134.295z M256,16.787c-27.816,0-50.361,22.545-50.361,50.361s22.545,50.361,50.361,50.361
		s50.361-22.545,50.361-50.361C306.335,39.348,283.799,16.812,256,16.787z"/>
</g>
<path style="fill:#74C6FF;" d="M297.967,67.148H281.18c0-13.908-11.272-25.18-25.18-25.18V25.18
	C279.166,25.206,297.942,43.982,297.967,67.148z"/>
<g>
	<path style="fill:#454545;" d="M331.541,184.656h16.787v25.18h-16.787V184.656z"/>
	<path style="fill:#454545;" d="M163.672,184.656h16.787v25.18h-16.787V184.656z"/>
</g>
<rect id="SVGCleanerId_0" x="222.426" y="344.131" width="16.787" height="16.787"/>
<rect id="SVGCleanerId_1" x="272.787" y="344.131" width="16.787" height="16.787"/>
<path d="M323.148,310.557H188.852c-4.633,0-8.393-3.752-8.393-8.393V134.295c0-4.633,3.76-8.393,8.393-8.393h134.295
	c4.642,0,8.393,3.76,8.393,8.393v167.869C331.541,306.806,327.789,310.557,323.148,310.557z M197.246,293.77h117.508V142.689
	H197.246V293.77z"/>
<path d="M323.148,335.738c-4.642,0-8.393-3.752-8.393-8.393V134.295c0-4.633,3.752-8.393,8.393-8.393
	c32.39,0,58.754,26.355,58.754,58.754v92.328C381.902,309.374,355.538,335.738,323.148,335.738z M331.541,143.536v174.575
	c19.129-3.903,33.574-20.849,33.574-41.12v-92.336C365.115,164.386,350.67,147.431,331.541,143.536z"/>
<path d="M188.852,335.738c-32.399,0-58.754-26.364-58.754-58.754v-92.328c0-32.399,26.355-58.754,58.754-58.754
	c4.633,0,8.393,3.76,8.393,8.393v193.049C197.246,331.986,193.486,335.738,188.852,335.738z M180.459,143.536
	c-19.129,3.895-33.574,20.858-33.574,41.119v92.328c0,20.27,14.445,37.225,33.574,41.12V143.536z"/>
<rect x="323.148" y="268.59" width="50.361" height="16.787"/>
<rect x="138.492" y="268.59" width="50.361" height="16.787"/>
<path d="M289.574,276.984h-67.148c-4.633,0-8.393-3.752-8.393-8.393v-67.148c0-4.633,3.76-8.393,8.393-8.393h67.148
	c4.642,0,8.393,3.76,8.393,8.393v67.148C297.967,273.232,294.215,276.984,289.574,276.984z M230.82,260.197h50.361v-50.361H230.82
	V260.197z"/>
<path d="M239.213,512h-67.148c-4.633,0-8.393-3.752-8.393-8.393v-8.393c0-23.141,18.826-41.967,41.967-41.967
	s41.967,18.826,41.967,41.967v8.393C247.607,508.248,243.846,512,239.213,512z M180.459,495.213h50.361
	c0-13.883-11.298-25.18-25.18-25.18C191.757,470.033,180.459,481.33,180.459,495.213z"/>
<path d="M239.213,503.607c-4.633,0-8.393-3.752-8.393-8.393c0-13.883-11.298-25.18-25.18-25.18
	c-4.373,0.025-8.712,1.225-12.506,3.483c-2.594,1.544-5.808,1.57-8.435,0.076c-2.627-1.494-4.239-4.281-4.239-7.294V302.164
	c0-4.642,3.76-8.393,8.393-8.393h50.361c4.633,0,8.393,3.752,8.393,8.393v193.049C247.607,499.855,243.846,503.607,239.213,503.607z
	 M205.597,453.246c9.459,0,18.197,3.131,25.222,8.419V310.557h-33.574v143.578C199.982,453.565,202.777,453.263,205.597,453.246z"/>
<path d="M339.934,512h-67.148c-4.642,0-8.393-3.752-8.393-8.393v-8.393c0-23.141,18.826-41.967,41.967-41.967
	c23.141,0,41.967,18.826,41.967,41.967v8.393C348.328,508.248,344.576,512,339.934,512z M281.18,495.213h50.361
	c0-13.883-11.298-25.18-25.18-25.18C292.478,470.033,281.18,481.33,281.18,495.213z"/>
<path d="M272.787,503.607c-4.642,0-8.393-3.752-8.393-8.393V302.164c0-4.642,3.752-8.393,8.393-8.393h50.361
	c4.642,0,8.393,3.752,8.393,8.393v164.134c0,3.013-1.62,5.8-4.239,7.294c-2.619,1.486-5.842,1.452-8.444-0.076
	c-3.785-2.258-8.116-3.45-12.515-3.483c-13.874,0.008-25.164,11.306-25.164,25.18C281.18,499.855,277.428,503.607,272.787,503.607z
	 M281.18,310.557v151.099c7.017-5.279,15.738-8.41,25.18-8.41c0.017,0,0.034,0,0.05,0c2.812,0.017,5.607,0.319,8.343,0.89V310.557
	H281.18z"/>
<path d="M331.541,75.541h-25.18V58.754h16.787V8.393h16.787v58.754C339.934,71.781,336.183,75.541,331.541,75.541z"/>
<path d="M256,134.295c-37.023,0-67.148-30.124-67.148-67.148S218.977,0,256,0s67.148,30.124,67.148,67.148
	S293.023,134.295,256,134.295z M256,16.787c-27.774,0-50.361,22.587-50.361,50.361s22.587,50.361,50.361,50.361
	s50.361-22.587,50.361-50.361S283.774,16.787,256,16.787z"/>
<path d="M297.967,67.148H281.18c0-13.883-11.298-25.18-25.18-25.18V25.18C279.141,25.18,297.967,44.007,297.967,67.148z"/>
<rect x="272.787" y="377.705" width="50.361" height="16.787"/>
<rect x="188.852" y="377.705" width="50.361" height="16.787"/>
<rect x="331.541" y="184.656" width="16.787" height="25.18"/>
<rect x="163.672" y="184.656" width="16.787" height="25.18"/>
<g>
	<rect id="SVGCleanerId_0_1_" x="222.426" y="344.131" width="16.787" height="16.787"/>
</g>
<g>
	<rect id="SVGCleanerId_1_1_" x="272.787" y="344.131" width="16.787" height="16.787"/>
</g>
<g>
</g>
<g>
</g>
<g>
</g>
<g>
</g>
<g>
</g>
<g>
</g>
<g>
</g>
<g>
</g>
<g>
</g>
<g>
</g>
<g>
</g>
<g>
</g>
<g>
</g>
<g>
</g>
<g>
</g>
</svg>
