<?xml version="1.0" encoding="iso-8859-1"?>
<!-- Generator: Adobe Illustrator 19.0.0, SVG Export Plug-In . SVG Version: 6.00 Build 0)  -->
<svg version="1.1" id="Capa_1" xmlns="http://www.w3.org/2000/svg" xmlns:xlink="http://www.w3.org/1999/xlink" x="0px" y="0px"
	 viewBox="0 0 512 512" style="enable-background:new 0 0 512 512;" xml:space="preserve">
<rect x="48.327" y="116.99" transform="matrix(-0.7071 0.7071 -0.7071 -0.7071 307.5053 260.8248)" style="fill:#FFD33F;" width="102.815" height="154.217"/>
<g>
	
		<rect x="104.508" y="111.349" transform="matrix(-0.7071 0.7071 -0.7071 -0.7071 340.5181 274.4233)" style="fill:#383856;" width="17.833" height="192.772"/>
	
		<rect x="75.641" y="212.455" transform="matrix(-0.7071 0.7071 -0.7071 -0.7071 373.4181 288.0685)" style="fill:#383856;" width="102.815" height="17.833"/>
	
		<rect x="48.339" y="185.195" transform="matrix(-0.7071 0.7071 -0.7071 -0.7071 307.5358 260.8374)" style="fill:#383856;" width="102.815" height="17.833"/>
	
		<rect x="21.118" y="157.931" transform="matrix(-0.7071 0.7071 -0.7071 -0.7071 241.7879 233.5434)" style="fill:#383856;" width="102.815" height="17.833"/>
</g>
<polyline style="fill:#FFD33F;" points="336.067,503.084 408.763,430.388 299.715,321.331 227.01,394.035 336.067,503.084 "/>
<g>
	
		<rect x="295.313" y="302.195" transform="matrix(-0.7071 0.7071 -0.7071 -0.7071 801.1921 465.2979)" style="fill:#383856;" width="17.833" height="192.772"/>
	
		<rect x="239.196" y="376.015" transform="matrix(-0.7071 0.7071 -0.7071 -0.7071 768.278 451.6312)" style="fill:#383856;" width="102.815" height="17.833"/>
	
		<rect x="266.474" y="403.291" transform="matrix(-0.7071 0.7071 -0.7071 -0.7071 834.1325 478.9063)" style="fill:#383856;" width="102.815" height="17.833"/>
	
		<rect x="293.741" y="430.57" transform="matrix(-0.7071 0.7071 -0.7071 -0.7071 899.9691 506.1941)" style="fill:#383856;" width="102.814" height="17.833"/>
</g>
<path style="fill:#FFD33F;" d="M181.572,275.893l41.907-41.907c6.964-6.964,18.252-6.964,25.216-0.009c0,0,0,0,0.009,0.009
	l29.299,29.299c6.964,6.964,6.964,18.252,0.009,25.216c0,0,0,0-0.009,0.009l-83.815,83.815c-6.964,6.964-18.252,6.964-25.216,0.009
	c0,0,0,0-0.009-0.009l-29.299-29.299c-6.964-6.964-6.964-18.252-0.009-25.216c0,0,0,0,0.009-0.009L181.572,275.893"/>
<path style="fill:#91CECE;" d="M251.941,237.177l22.88,22.88c25.742,25.742,65.063,32.117,97.626,15.836l0,0L236.105,139.587l0,0
	C219.842,172.141,226.217,211.445,251.941,237.177z"/>
<g>
	<path style="fill:#EA3836;" d="M511.998,151.58h-17.833c-0.08-73.828-59.919-133.666-133.747-133.747V0
		C444.09,0.089,511.9,67.899,511.998,151.58z"/>
	<path style="fill:#EA3836;" d="M469.199,151.58h-17.833c-0.054-50.208-40.739-90.894-90.948-90.948V42.799
		C420.47,42.87,469.127,91.527,469.199,151.58z"/>
	<path style="fill:#EA3836;" d="M426.4,151.58h-17.833c-0.027-26.58-21.569-48.122-48.149-48.149V85.598
		C396.842,85.642,426.355,115.156,426.4,151.58z"/>
	<path style="fill:#EA3836;" d="M360.418,130.18c11.814,0,21.399,9.585,21.399,21.399l0,0h-21.399V130.18z"/>
</g>
<g>
	<circle style="fill:#383856;" cx="66.176" cy="35.666" r="8.916"/>
	<circle style="fill:#383856;" cx="413.899" cy="276.41" r="8.916"/>
	<circle style="fill:#383856;" cx="182.089" cy="115.914" r="8.916"/>
	<circle style="fill:#383856;" cx="84.008" cy="454.739" r="8.916"/>
	<circle style="fill:#383856;" cx="231.13" cy="31.208" r="13.375"/>
	<circle style="fill:#383856;" cx="462.957" cy="378.949" r="13.375"/>
	<circle style="fill:#383856;" cx="52.801" cy="352.199" r="13.375"/>
</g>
<path style="fill:#83B2B7;" d="M274.82,245.3l-22.88-22.835c-14.008-14.034-22.639-32.545-24.378-52.304
	c-2.149,24.859,6.785,49.397,24.422,67.052l22.835,22.844c25.742,25.742,65.063,32.117,97.626,15.836l-10.432-10.432
	C331.484,275.937,297.655,268.117,274.82,245.3z"/>
<g>
	<path style="fill:#FFAC3E;" d="M137.204,339.913c0.704,1.132,1.525,2.176,2.461,3.121l29.299,29.299
		c6.964,6.964,18.252,6.964,25.216,0.009c0,0,0,0,0.009-0.009l53.936-53.936C214.046,336.248,175.482,343.729,137.204,339.913z"/>
	<path style="fill:#FFAC3E;" d="M257.059,363.987l-30.048,30.048l11.743,11.743c11.966-8.809,25.091-15.898,39.018-21.078
		L257.059,363.987z"/>
	
		<rect x="273.942" y="332.046" transform="matrix(-0.7071 0.7071 -0.7071 -0.7071 749.1908 383.4057)" style="fill:#FFAC3E;" width="42.495" height="29.638"/>
	<path style="fill:#FFAC3E;" d="M333.669,374.491c2.996,0,5.921,0.285,8.916,0.446l5.35-5.35l-14.659-14.712l-21.212,21.212
		C319.224,375.07,326.438,374.535,333.669,374.491z"/>
</g>
<g>
	<polygon style="fill:#383856;" points="320.669,342.293 320.669,342.293 333.285,354.901 333.285,354.901 	"/>
	<polygon style="fill:#383856;" points="354.355,375.971 347.935,369.551 347.935,369.551 	"/>
</g>
<g>
	<path style="fill:#202033;" d="M290.629,372.342l-20.963-20.963l-27.258-27.258l-12.608,12.608l27.258,27.258l20.713,20.713
		l0.785-0.285c6.072-2.238,12.269-4.102,18.564-5.582c4.904-1.141,9.888-2.033,14.944-2.675l21.212-21.284l-12.608-12.608
		L290.629,372.342z"/>
	<path style="fill:#202033;" d="M347.935,369.551l-5.35,5.35c3.977,0.223,7.909,0.535,11.805,1.034L347.935,369.551z"/>
</g>
<path style="fill:#383856;" d="M277.772,384.7l0.25,0.25l0.535-0.535L277.772,384.7z"/>
<g>
	<path style="fill:#FFAC3E;" d="M122.269,238.756l-25.26,25.269l20.954,20.963l30.048-30.048l-17.423-17.423
		C127.833,237.98,125.06,238.39,122.269,238.756z"/>
	<path style="fill:#FFAC3E;" d="M92.925,240.744c-6.794,0-13.508-0.357-20.151-0.954l11.591,11.591l10.7-10.7
		C94.387,240.744,93.665,240.744,92.925,240.744z"/>
	<path style="fill:#FFAC3E;" d="M151.265,232.978l9.353,9.353l19.126-19.126C170.48,227.111,160.966,230.374,151.265,232.978z"/>
</g>
<path style="fill:#202033;" d="M160.619,242.331l-9.353-9.353c-6.768,1.837-13.66,3.353-20.677,4.538l17.423,17.423l27.258,27.258
	l12.608-12.608L160.619,242.331z"/>
<polygon style="fill:#383856;" points="84.392,251.417 84.392,251.417 97,264.025 97,264.025 "/>
<path style="fill:#202033;" d="M95.127,240.69l-10.7,10.7l12.608,12.608l25.26-25.269C113.29,239.933,104.213,240.592,95.127,240.69
	z"/>
<path d="M117.962,293.895c-2.363,0.009-4.637-0.936-6.304-2.613L2.61,182.234c-3.477-3.477-3.477-9.13,0-12.608l72.696-72.696
	c1.667-1.676,3.941-2.613,6.304-2.613l0,0c2.363,0,4.637,0.936,6.304,2.613L196.962,205.97c3.477,3.477,3.477,9.13,0,12.608
	l-72.696,72.696C122.599,292.959,120.325,293.895,117.962,293.895z M21.522,175.93l96.44,96.44l60.088-60.088l-96.44-96.44
	L21.522,175.93z"/>
<path d="M181.572,386.474c-7.097,0.018-13.91-2.8-18.912-7.838l-29.299-29.299c-10.45-10.441-10.45-27.382,0-37.832l0,0
	l83.815-83.815c10.584-10.111,27.24-10.111,37.824,0l29.299,29.299c10.45,10.441,10.45,27.382,0,37.832l0,0l-83.815,83.815
	C195.482,383.675,188.67,386.492,181.572,386.474z M187.876,282.197l-41.907,41.907c-3.477,3.477-3.477,9.122,0,12.599
	l29.299,29.308c3.522,3.37,9.086,3.37,12.608,0l83.815-83.815c3.477-3.477,3.477-9.122,0-12.599l-29.299-29.308
	c-3.522-3.37-9.086-3.37-12.608,0L187.876,282.197z"/>
<path d="M336.067,512L336.067,512c-2.363,0-4.637-0.936-6.304-2.613L220.715,400.348c-3.477-3.477-3.477-9.13,0-12.608
	l72.696-72.696c3.477-3.477,9.13-3.477,12.608,0l109.048,109.048c3.477,3.477,3.477,9.13,0,12.608l-72.696,72.696
	C340.695,511.064,338.43,512,336.067,512z M239.627,394.035l96.44,96.44l60.088-60.088l-96.44-96.44L239.627,394.035z"/>
<path d="M334.561,293.77c-24.797,0-48.577-9.862-66.089-27.409l-22.844-22.844c-28.479-28.435-35.532-71.911-17.512-107.889
	l5.537-11.065l153.809,153.773l-11.065,5.537C363.405,290.373,349.085,293.77,334.561,293.77z M239.342,155.431
	c-8.15,26.731-0.874,55.772,18.912,75.504l22.808,22.808c19.723,19.777,48.755,27.053,75.478,18.912L239.342,155.431z"/>
<g>
</g>
<g>
</g>
<g>
</g>
<g>
</g>
<g>
</g>
<g>
</g>
<g>
</g>
<g>
</g>
<g>
</g>
<g>
</g>
<g>
</g>
<g>
</g>
<g>
</g>
<g>
</g>
<g>
</g>
</svg>
