<svg viewBox="0 0 512.0007 512" xmlns="http://www.w3.org/2000/svg"><path d="m180.648438 467.019531c-.007813-.214843-.015626-.425781-.023438-.640625-.003906-.082031-.007812-.167968-.011719-.253906-.007812-.164062-.011719-.324219-.019531-.488281-.007812-.125-.011719-.246094-.019531-.371094-.003907-.121094-.011719-.242187-.015625-.359375-.011719-.160156-.019532-.320312-.027344-.476562-.003906-.082032-.007812-.167969-.015625-.25-.011719-.195313-.023437-.394532-.035156-.589844 0-.039063-.003907-.078125-.007813-.113282-.015625-.230468-.027344-.460937-.042968-.6875 0-.011718-.003907-.019531-.003907-.027343-.085937-1.222657-.191406-2.4375-.3125-3.644531-.007812-.074219-.015625-.148438-.023437-.222657-.011719-.117187-.023438-.234375-.035156-.347656 0-.015625-.003907-.027344-.007813-.039063-2.535156-23.773437-12.207031-45.449218-26.824219-62.832031-.167968-.253906-.351562-.496093-.550781-.730469-15.371094-18.003906-35.566406-30.726562-57.871094-36.90625-5.96875-1.65625-12.132812-2.851562-18.445312-3.546874-.042969-.003907-.085938-.007813-.128907-.015626-.152343-.015624-.304687-.03125-.457031-.046874-4.066406-.425782-8.171875-.644532-12.300781-.644532-11.808594 0-23.46875 1.753906-34.667969 5.210938-.164062.050781-.328125.109375-.488281.171875-8.585938 2.691406-16.859375 6.371093-24.640625 10.996093-3.5625 2.113282-4.734375 6.714844-2.617187 10.277344 2.113281 3.558594 6.714843 4.734375 10.277343 2.617188 3.414063-2.027344 6.9375-3.847656 10.550781-5.453125.699219 5.578125 3.273438 10.59375 7.363282 13.96875 7.058594 5.820312 15.9375 5.277343 23.066406 4.847656l.769531-.046875c7.875-.472656 10.269531 1.222656 10.992188 2.273438.976562 1.414062.726562 4.328124-.605469 7.089843-1.097656 2.277344-2.757812 4.535157-4.515625 6.921875-1.160156 1.582032-2.363281 3.210938-3.5 4.976563-7.839844 12.15625-10.226563 27.480469-6.550781 42.042969 2.515625 9.976562 7.632812 17.921874 13.679687 21.253906 2.546875 1.402344 5.347657 2.085937 8.085938 2.085937 4.0625 0 7.984375-1.503906 10.71875-4.382812 5.542969-5.851563 3.972656-13.261719 2.933593-18.164063-.394531-1.859375-.800781-3.777344-.753906-5.085937.109375-3.285157 4.042969-6.265625 7.777344-7.246094 4.609375-1.203125 10.035156-.664063 15.78125-.089844 8.472656.847657 18.074219 1.804688 27.144531-2.921875 8.601563-4.484375 14.507813-13.015625 17.609375-25.410156 5.902344 10.132812 10.117188 21.363281 12.246094 33.308594-5.863281 1.777344-10.851562 5.066406-15.324219 8.015625-1.421875.9375-2.761719 1.820312-4.105469 2.644531-10.753906 6.601562-14.542968 3.992188-18.933593.972656-1.023438-.703125-2.078125-1.433594-3.238281-2.066406-9.085938-4.976562-16.996094-2.042969-20.804688 3.074219-4.03125 5.421875-4.59375 14.984375 3.714844 23.175781 7.472656 7.351562 17.445312 9.894531 27.117187 11.546875 9.234375 1.570313 18.628907 2.589844 28.042969 3.039063-.515625 3.5625 1.597656 7.082031 5.140625 8.214843.757813.242188 1.527344.355469 2.285156.355469 3.175781 0 6.125-2.03125 7.140625-5.214844 3.6875-11.519531 5.550782-23.546875 5.550782-35.746094 0-1.3125-.019532-2.617187-.0625-3.914062 0-.035156 0-.070312 0-.105469zm-42.222657-56.441406c-1.183593 7.671875-4.066406 17.585937-11.089843 21.25-5.097657 2.65625-11.410157 2.027344-18.71875 1.296875-6.8125-.679688-13.855469-1.382812-21.074219.507812-8.871094 2.328126-18.589844 9.972657-18.96875 21.25-.105469 3.136719.523437 6.089844 1.074219 8.699219.273437 1.289063.695312 3.285157.730468 4.410157-.179687-.035157-.371094-.097657-.550781-.195313-1.527344-.839844-4.613281-4.785156-6.378906-11.785156-1.261719-4.992188-3.332031-17.925781 4.613281-30.25.886719-1.375 1.902344-2.753907 2.972656-4.210938 2.089844-2.839843 4.253906-5.773437 5.945313-9.300781 3.785156-7.839844 3.582031-16.101562-.546875-22.105469-5.339844-7.757812-14.703125-8.875-20.519532-8.875-1.539062 0-2.828124.078125-3.730468.132813l-.777344.046875c-4.972656.300781-10.113281.613281-12.613281-1.449219-1.652344-1.363281-2.449219-4.398438-1.9375-7.382812.019531-.113282.039062-.222657.0625-.332032 8.609375-2.308594 17.535156-3.496094 26.550781-3.496094 3.730469 0 7.414062.199219 11.042969.589844l.109375.015625c.15625.015625.316406.03125.472656.050781.09375.011719.1875.019532.28125.03125.109375.015626.21875.027344.332031.039063.136719.019531.273438.035156.414063.050781.0625.007813.128906.015625.191406.023438.199219.027344.394531.050781.589844.078125.011718 0 .015625 0 .023437.003906 3.984375.527344 7.914063 1.285156 11.777344 2.265625.007813.003906.011719.003906.019531.007812.183594.042969.363282.089844.546875.140626.054688.015624.113281.027343.167969.042968.121094.03125.238281.0625.355469.09375.121093.03125.242187.066406.363281.097656.050781.011719.097656.027344.144531.039063 19.144531 5.210937 36.074219 15.859375 49.015625 30.175781-.1875 2.695313-.484375 5.390625-.890625 8.042969zm-22.464843 67.578125c-1.277344-1.257812-1.800782-2.3125-1.996094-2.992188.339844.097657.789062.273438 1.351562.582032.484375.265625 1.191406.753906 1.941406 1.269531 5.667969 3.898437 16.214844 11.160156 35.292969-.546875 1.546875-.953125 3.050781-1.945312 4.507813-2.902344 2.949218-1.945312 5.789062-3.816406 8.625-5.113281.019531.859375.03125 1.722656.03125 2.585937 0 5.890626-.503906 11.765626-1.496094 17.527344-9.78125-.339844-19.558594-1.332031-29.144531-2.960937-7.253907-1.242188-14.59375-3.007813-19.113281-7.449219zm0 0"/><path d="m166.472656 288.492188c-4.035156-.945313-8.066406 1.554687-9.015625 5.585937-4.015625 17.09375.984375 34.699219 13.375 47.089844 9.574219 9.574219 22.257813 14.738281 35.417969 14.734375 3.871094 0 7.785156-.445313 11.671875-1.359375 4.03125-.949219 6.53125-4.984375 5.585937-9.015625-.949218-4.03125-4.984374-6.53125-9.019531-5.585938-12.003906 2.820313-24.355469-.6875-33.050781-9.378906-8.691406-8.695312-12.199219-21.050781-9.378906-33.054688.949218-4.03125-1.554688-8.066406-5.585938-9.015624zm0 0"/><path d="m215.589844 374.042969c-21.535156 2.890625-42.691406-4.25-58.039063-19.59375-15.34375-15.347657-22.488281-36.5-19.589843-58.039063.550781-4.105468-2.332032-7.878906-6.4375-8.433594-4.109376-.546874-7.878907 2.328126-8.429688 6.433594-3.523438 26.214844 5.171875 51.964844 23.851562 70.644532 15.953126 15.953124 37.054688 24.621093 59.203126 24.621093 3.789062 0 7.609374-.253906 11.441406-.769531 4.105468-.550781 6.984375-4.324219 6.433594-8.429688-.550782-4.105468-4.324219-6.988281-8.433594-6.433593zm0 0"/><path d="m505.996094 297.992188-82.667969-82.664063c-3.875-3.878906-9.035156-6.015625-14.519531-6.015625s-10.644532 2.136719-14.519532 6.015625l-24.78125 24.777344-15.460937-15.464844 28.296875-28.296875c2.9375-2.9375 4.558594-6.84375 4.558594-11s-1.617188-8.0625-4.554688-11l-.695312-.691406 16.046875-7.882813c2.75-1.347656 4.691406-3.957031 5.191406-6.980469.503906-3.019531-.492187-6.117187-2.65625-8.285156l-38.738281-38.738281c-2.167969-2.164063-5.261719-3.160156-8.285156-2.65625-3.023438.5-5.632813 2.441406-6.984376 5.191406l-7.878906 16.046875-.691406-.695312c-2.9375-2.9375-6.84375-4.554688-11-4.554688s-8.0625 1.617188-11 4.554688l-28.296875 28.300781-15.464844-15.464844 24.777344-24.777343c3.878906-3.878907 6.015625-9.035157 6.015625-14.519532s-2.136719-10.644531-6.015625-14.519531l-24.476563-24.476563c0-.003906-.003906-.003906-.007812-.007812 0-.003906-.003906-.003906-.007812-.007812l-58.171876-58.175782c-8.007812-8.003906-21.035156-8.003906-29.042968 0l-1.386719 1.390625c-2.929687 2.929688-2.929687 7.675781 0 10.605469s7.675781 2.929688 10.605469 0l1.386718-1.390625c2.160157-2.15625 5.671876-2.15625 7.828126 0l19.179687 19.183594-28.691406 28.691406-23.09375-23.09375 2.175781-2.175781c2.929688-2.929688 2.929688-7.679688 0-10.609375-2.929688-2.925781-7.675781-2.925781-10.605469 0l-37.558593 37.5625c-3.878907 3.878906-6.015626 9.035156-6.015626 14.519531 0 5.488281 2.136719 10.644531 6.015626 14.523438l24.472656 24.472656c.003906.003906.007812.007812.007812.007812.003906.003906.007813.007813.007813.007813l58.175781 58.175781c4.003906 4.003906 9.261719 6.003906 14.523438 6.003906 5.257812 0 10.515624-2 14.519531-6.003906l24.78125-24.777344 15.460937 15.464844-28.300781 28.300781c-6.0625 6.0625-6.0625 15.933594 0 21.996094l7.785156 7.785156-7.867187 7.871094c-16.148438-9.328125-35.289063-12.824219-54.085938-9.4375-3.492187.628906-6.320312 3.128906-7.378906 6.515625-1.0625 3.398438-.164062 7.070312 2.351562 9.582031l35.480469 35.480469-10.109375 10.113281c-2.574218-1.125-5.375-1.71875-8.265625-1.71875-5.5 0-10.671875 2.140625-14.558593 6.03125-3.890626 3.890625-6.03125 9.058594-6.03125 14.558594s2.140624 10.671875 6.03125 14.558594c3.886718 3.890625 9.058593 6.03125 14.558593 6.03125s10.671875-2.140625 14.558594-6.03125c3.890625-3.886719 6.03125-9.058594 6.03125-14.558594 0-2.890625-.589844-5.691406-1.71875-8.261719l10.113281-10.113281 35.480469 35.480469c1.816406 1.820312 4.238281 2.792968 6.722656 2.792968.953125 0 1.917969-.144531 2.859375-.4375 3.386719-1.0625 5.886719-3.890624 6.515625-7.382812 3.382813-18.796875-.109375-37.9375-9.4375-54.085938l7.867188-7.867187 7.789062 7.785156c3.03125 3.035157 7.015625 4.550781 11 4.546875 3.980469 0 7.964844-1.515625 11-4.546875l28.296875-28.300781 15.464844 15.464844-24.777344 24.777344c-8.007812 8.007812-8.007812 21.035156 0 29.042968l82.664063 82.664063c3.960937 3.960937 9.246093 5.988281 14.550781 5.988281 4.3125 0 8.636719-1.339844 12.273438-4.066406 3.316406-2.480469 3.988281-7.183594 1.503906-10.5-2.484375-3.3125-7.183594-3.984375-10.5-1.5-2.179688 1.632812-5.285156 1.40625-7.222656-.527344l-19.179688-19.179688 28.695312-28.691406 23.09375 23.09375-4.898437 4.894532c-2.925781 2.929687-2.925781 7.679687 0 10.609374 2.929687 2.925782 7.679687 2.925782 10.609375 0l40.277344-40.28125c8.007812-8.011718 8.007812-21.039062 0-29.046874zm-218.308594-194.800782c0 1.480469-.574219 2.867188-1.621094 3.914063l-24.777344 24.78125-23.09375-23.09375 28.691407-28.695313 19.179687 19.183594c1.046875 1.042969 1.621094 2.433594 1.621094 3.910156zm-54.5-56.792968 23.09375 23.09375-28.691406 28.691406-23.09375-23.09375zm-67.992188 67.992187 28.691407-28.695313 23.09375 23.097657-28.691407 28.691406zm-31.40625-33.703125c0-1.476562.574219-2.867188 1.621094-3.914062l24.777344-24.777344 23.09375 23.09375-28.691406 28.691406-19.179688-19.179688c-1.046875-1.042968-1.621094-2.433593-1.621094-3.914062zm92.113282 86.582031c-2.15625 2.15625-5.667969 2.15625-7.828125 0l-19.179688-19.179687 28.695313-28.691406 23.09375 23.089843zm-15.589844 142.324219c-1.054688 1.054688-2.457031 1.636719-3.953125 1.636719-1.492187 0-2.894531-.582031-3.953125-1.636719-1.054688-1.054688-1.636719-2.460938-1.636719-3.953125s.582031-2.898437 1.636719-3.953125c1.058594-1.054688 2.460938-1.636719 3.953125-1.636719s2.898437.582031 3.953125 1.636719c1.058594 1.054688 1.636719 2.460938 1.636719 3.953125s-.578125 2.894531-1.636719 3.953125zm146-181.796875 27.890625 27.890625-13.757813 6.757812-20.890624-20.890624zm-83.125 176.097656-65.078125-65.078125c17.128906-.121094 33.8125 6.628906 46.128906 18.949219 12.316407 12.316406 19.035157 28.980469 18.949219 46.128906zm-4.53125-52.648437c-1.21875-1.398438-2.488281-2.765625-3.8125-4.089844s-2.6875-2.59375-4.089844-3.8125l6.089844-6.089844 7.90625 7.902344zm35.878906 1.695312c-.21875.21875-.570312.214844-.789062 0l-12.945313-12.945312c-.046875-.050782-.09375-.097656-.140625-.148438l-18.511718-18.507812c-.046876-.046875-.09375-.09375-.144532-.140625l-12.945312-12.949219c-.21875-.214844-.21875-.566406 0-.785156l33.59375-33.59375s.003906-.003906.007812-.007813c.003906-.003906.007813-.007812.011719-.011719l33.59375-33.59375c.039063-.039062.160156-.160156.390625-.160156s.351562.121094.394531.164063l7.980469 7.980469c.074219.078124.15625.160156.238281.238281l28.234375 28.234375c.082032.085937.167969.167968.25.25l7.984375 7.984375c.039063.039062.164063.164062.164063.390625 0 .230468-.125.355468-.164063.394531l-33.59375 33.59375c-.003906.003906-.007812.007813-.011719.011719 0 .003906-.003906.003906-.007812.007812zm161.066406 25.871094-28.691406 28.695312-23.09375-23.09375 28.695313-28.695312zm-60.707031-52.878906c1.046875-1.042969 2.4375-1.621094 3.914063-1.621094 1.480468 0 2.867187.574219 3.914062 1.621094l19.179688 19.179687-28.691406 28.691407-23.09375-23.09375zm-60.164062 60.164062 24.777343-24.777344 23.09375 23.09375-28.691406 28.691407-19.179687-19.179688c-2.15625-2.160156-2.15625-5.671875 0-7.828125zm52.882812 60.707032-23.09375-23.09375 28.691407-28.691407 23.09375 23.09375zm97.777344-30.375-24.78125 24.777343-23.09375-23.09375 28.695313-28.691406 19.179687 19.179687c2.15625 2.15625 2.15625 5.667969 0 7.828126zm0 0"/></svg>