<svg height="512pt" viewBox="0 -25 512.001 512" width="512pt" xmlns="http://www.w3.org/2000/svg"><path d="m137.597656 98.386719c4.140625 0 7.5-3.355469 7.5-7.5v-28.972657c0-4.140624-3.359375-7.5-7.5-7.5-4.144531 0-7.5 3.359376-7.5 7.5v28.972657c0 4.144531 3.355469 7.5 7.5 7.5zm0 0"/><path d="m165.394531 98.386719c4.140625 0 7.5-3.355469 7.5-7.5v-28.972657c0-4.140624-3.359375-7.5-7.5-7.5-4.144531 0-7.5 3.359376-7.5 7.5v28.972657c0 4.144531 3.355469 7.5 7.5 7.5zm0 0"/><path d="m193.191406 98.386719c4.140625 0 7.5-3.355469 7.5-7.5v-28.972657c0-4.140624-3.359375-7.5-7.5-7.5-4.144531 0-7.5 3.359376-7.5 7.5v28.972657c0 4.144531 3.355469 7.5 7.5 7.5zm0 0"/><path d="m130.097656 199.714844v28.976562c0 4.140625 3.355469 7.5 7.5 7.5 4.140625 0 7.5-3.359375 7.5-7.5v-28.976562c0-4.140625-3.359375-7.5-7.5-7.5-4.144531 0-7.5 3.359375-7.5 7.5zm0 0"/><path d="m157.894531 199.714844v28.976562c0 4.140625 3.355469 7.5 7.5 7.5 4.140625 0 7.5-3.359375 7.5-7.5v-28.976562c0-4.140625-3.359375-7.5-7.5-7.5-4.144531 0-7.5 3.359375-7.5 7.5zm0 0"/><path d="m185.691406 199.714844v28.976562c0 4.140625 3.355469 7.5 7.5 7.5 4.140625 0 7.5-3.359375 7.5-7.5v-28.976562c0-4.140625-3.359375-7.5-7.5-7.5-4.144531 0-7.5 3.359375-7.5 7.5zm0 0"/><path d="m130.097656 337.515625v28.976563c0 4.140624 3.355469 7.5 7.5 7.5 4.140625 0 7.5-3.359376 7.5-7.5v-28.976563c0-4.140625-3.359375-7.5-7.5-7.5-4.144531 0-7.5 3.359375-7.5 7.5zm0 0"/><path d="m157.894531 337.515625v28.976563c0 4.140624 3.355469 7.5 7.5 7.5 4.140625 0 7.5-3.359376 7.5-7.5v-28.976563c0-4.140625-3.359375-7.5-7.5-7.5-4.144531 0-7.5 3.359375-7.5 7.5zm0 0"/><path d="m185.691406 337.515625v28.976563c0 4.140624 3.355469 7.5 7.5 7.5 4.140625 0 7.5-3.359376 7.5-7.5v-28.976563c0-4.140625-3.359375-7.5-7.5-7.5-4.144531 0-7.5 3.359375-7.5 7.5zm0 0"/><path d="m443.476562 333.8125c-3.453124-2.285156-8.109374-1.34375-10.398437 2.109375l-28.652344 43.246094-14.699219-13.960938c-3.003906-2.851562-7.75-2.726562-10.605468.277344-2.851563 3.003906-2.726563 7.75.277344 10.601563l21.179687 20.109374c1.402344 1.332032 3.253906 2.0625 5.164063 2.0625 1.90625 0 5.179687-1.210937 6.253906-3.355468l33.589844-50.695313c2.285156-3.453125 1.34375-8.105469-2.109376-10.394531zm0 0"/><path d="m310.332031 413.40625h-285.574219c-5.378906 0-9.757812-4.378906-9.757812-9.757812v-103.285157c0-5.382812 4.378906-9.761719 9.757812-9.761719h303.910157c4.140625 0 7.5-3.355468 7.5-7.5 0-4.140624-3.359375-7.5-7.5-7.5h-303.910157c-5.378906 0-9.757812-4.375-9.757812-9.757812v-103.285156c0-5.378906 4.378906-9.757813 9.757812-9.757813h417.667969c5.378907 0 9.757813 4.378907 9.757813 9.757813v84.007812c0 4.140625 3.359375 7.5 7.5 7.5s7.5-3.359375 7.5-7.5v-84.007812c0-6.703125-2.679688-12.792969-7.023438-17.257813 4.34375-4.460937 7.023438-10.550781 7.023438-17.257812v-103.285157c0-13.648437-11.105469-24.757812-24.757813-24.757812h-417.667969c-13.652343 0-24.757812 11.109375-24.757812 24.757812v103.285157c0 6.707031 2.679688 12.796875 7.023438 17.257812-4.34375 4.464844-7.023438 10.554688-7.023438 17.257813v103.285156c0 6.707031 2.679688 12.796875 7.023438 17.257812-4.34375 4.464844-7.023438 10.554688-7.023438 17.261719v103.285157c0 13.648437 11.105469 24.757812 24.757812 24.757812h285.578126c4.140624 0 7.5-3.359375 7.5-7.5 0-4.144531-3.359376-7.5-7.503907-7.5zm-295.332031-388.648438c0-5.378906 4.378906-9.757812 9.757812-9.757812h417.667969c5.378907 0 9.757813 4.378906 9.757813 9.757812v103.285157c0 5.382812-4.378906 9.757812-9.757813 9.757812h-417.667969c-5.378906 0-9.757812-4.375-9.757812-9.757812zm0 0"/><path d="m415.558594 269c-37.597656 0-70.242188 21.628906-86.140625 53.097656h-89.65625c-9.511719 0-17.25 7.742188-17.25 17.253906v25.304688c0 9.511719 7.738281 17.253906 17.25 17.253906h80.765625c7.835937 45.359375 47.46875 79.972656 95.03125 79.972656 53.179687 0 96.441406-43.261718 96.441406-96.441406 0-53.179687-43.261719-96.441406-96.441406-96.441406zm-175.796875 97.910156c-1.242188 0-2.25-1.011718-2.25-2.253906v-25.304688c0-1.242187 1.007812-2.253906 2.25-2.253906h83.605469c-2.761719 8.964844-4.25 18.484375-4.25 28.34375 0 .488282.003906.976563.011718 1.464844h-79.367187zm175.796875 79.972656c-44.90625 0-81.441406-36.535156-81.441406-81.441406s36.535156-81.441406 81.441406-81.441406 81.441406 36.535156 81.441406 81.441406-36.535156 81.441406-81.441406 81.441406zm0 0"/><path d="m415.558594 295.050781c-38.8125 0-70.390625 31.578125-70.390625 70.390625s31.578125 70.390625 70.390625 70.390625 70.390625-31.578125 70.390625-70.390625-31.578125-70.390625-70.390625-70.390625zm0 125.78125c-30.542969 0-55.390625-24.847656-55.390625-55.390625 0-30.542968 24.847656-55.390625 55.390625-55.390625 30.542968 0 55.390625 24.847657 55.390625 55.390625 0 30.542969-24.847657 55.390625-55.390625 55.390625zm0 0"/><path d="m74.179688 110.496094c18.800781 0 34.097656-15.292969 34.097656-34.09375 0-18.800782-15.296875-34.097656-34.097656-34.097656-18.796876 0-34.09375 15.296874-34.09375 34.097656 0 18.800781 15.296874 34.09375 34.09375 34.09375zm0-53.191406c10.53125 0 19.097656 8.566406 19.097656 19.097656 0 10.527344-8.566406 19.09375-19.097656 19.09375-10.527344 0-19.09375-8.566406-19.09375-19.09375 0-10.53125 8.566406-19.097656 19.09375-19.097656zm0 0"/><path d="m40.085938 214.203125c0 18.800781 15.292968 34.09375 34.09375 34.09375 18.800781 0 34.097656-15.292969 34.097656-34.09375s-15.296875-34.09375-34.097656-34.09375c-18.796876 0-34.09375 15.292969-34.09375 34.09375zm53.191406 0c0 10.527344-8.566406 19.09375-19.097656 19.09375-10.527344 0-19.09375-8.5625-19.09375-19.09375s8.566406-19.09375 19.09375-19.09375c10.53125 0 19.097656 8.5625 19.097656 19.09375zm0 0"/><path d="m40.085938 352.003906c0 18.800782 15.292968 34.09375 34.09375 34.09375 18.800781 0 34.097656-15.292968 34.097656-34.09375 0-18.800781-15.296875-34.09375-34.097656-34.09375-18.796876 0-34.09375 15.292969-34.09375 34.09375zm53.191406 0c0 10.53125-8.566406 19.09375-19.097656 19.09375-10.527344 0-19.09375-8.5625-19.09375-19.09375 0-10.527344 8.566406-19.09375 19.09375-19.09375 10.53125 0 19.097656 8.566406 19.097656 19.09375zm0 0"/><path d="m239.761719 106.304688h20.808593c4.140626 0 7.5-3.355469 7.5-7.5 0-4.140626-3.359374-7.5-7.5-7.5h-20.808593c-1.242188 0-2.25-1.007813-2.25-2.25v-25.304688c0-1.242188 1.007812-2.253906 2.25-2.253906h173.714843c1.242188 0 2.25 1.011718 2.25 2.253906v25.304688c0 1.242187-1.007812 2.25-2.25 2.25h-118.011718c-4.140625 0-7.5 3.359374-7.5 7.5 0 4.144531 3.359375 7.5 7.5 7.5h118.011718c9.511719 0 17.25-7.738282 17.25-17.25v-25.304688c0-9.511719-7.738281-17.253906-17.25-17.253906h-173.714843c-9.511719 0-17.25 7.742187-17.25 17.253906v25.304688c0 9.511718 7.738281 17.25 17.25 17.25zm0 0"/><path d="m239.761719 181.558594c-9.511719 0-17.25 7.742187-17.25 17.253906v25.304688c0 9.511718 7.738281 17.253906 17.25 17.253906h173.714843c9.511719 0 17.25-7.742188 17.25-17.253906v-25.304688c0-9.511719-7.738281-17.253906-17.25-17.253906zm175.964843 17.253906v25.304688c0 1.242187-1.007812 2.253906-2.25 2.253906h-173.714843c-1.242188 0-2.25-1.011719-2.25-2.253906v-25.304688c0-1.242188 1.007812-2.253906 2.25-2.253906h173.714843c1.242188 0 2.25 1.011718 2.25 2.253906zm0 0"/></svg>