<svg height="511pt" viewBox="0 0 511 511.99991" width="511pt" xmlns="http://www.w3.org/2000/svg"><path d="m469.820312 244.875c-2.699218-52.875-24.570312-102.203125-62.28125-139.914062-83.058593-83.058594-218.148437-83.976563-302.125 0-83.492187 83.492187-83.496093 218.625.003907 302.121093 40.347656 40.351563 93.996093 62.574219 151.058593 62.574219 122.121094 0 219.894532-102.902344 213.34375-224.78125zm-205.84375-187.332031c49.207032 1.835937 93.757813 21.609375 127.476563 52.894531l-13.636719 13.640625c-31.335937-28.875-71.261718-45.410156-113.839844-47.152344zm-14.996093 0v19.382812c-42.578125 1.738281-82.503907 18.277344-113.839844 47.152344l-13.640625-13.640625c33.785156-31.347656 78.355469-51.0625 127.480469-52.894531zm-138.085938 63.503906 13.640625 13.640625c-28.769531 31.242188-45.390625 71.289062-47.152344 113.835938h-19.382812c1.832031-49.117188 21.539062-93.683594 52.894531-127.476563zm145.582031 333.609375c-107.011718 0-194.515624-85.070312-198.476562-191.136719h22.347656c6.421875 0 11.773438-5.207031 11.933594-11.609375 1.046875-42.304687 18.113281-82.089844 48.054688-112.03125 64.191406-64.191406 168.089843-64.199218 232.285156 0 29.945312 29.945313 47.011718 69.730469 48.058594 112.027344.15625 6.402344 5.507812 11.613281 11.929687 11.613281h22.347656c-3.960937 106.066407-91.464843 191.136719-198.480469 191.136719zm179.097657-206.132812c-1.757813-42.539063-18.378907-82.585938-47.152344-113.839844l13.640625-13.640625c31.34375 33.785156 51.058594 78.347656 52.894531 127.480469zm0 0"/><path d="m398.453125 251.832031-56.976563-7.726562c-7.398437-32.53125-33.003906-58.273438-65.859374-65.640625-4.050782-.910156-8.054688 1.636718-8.957032 5.679687-.90625 4.042969 1.636719 8.050781 5.675782 8.957031 25.109374 5.628907 45.378906 24.65625 53.019531 48.816407l-52.4375-7.113281c-19.160157-5.953126-39.003907 8.355468-39.003907 28.742187 0 20.519531 19.980469 34.65625 39.003907 28.742187 22.148437-3.003906 33.203125-4.503906 52.476562-7.117187-9.242187 29.839844-36.773437 50.578125-68.917969 50.578125-39.8125 0-72.199218-32.390625-72.199218-72.203125 0-33.492187 23.695312-63.113281 56.339844-70.433594 4.042968-.902343 6.585937-4.914062 5.679687-8.957031s-4.910156-6.585938-8.957031-5.679688c-39.148438 8.777344-68.0625 43.75-68.0625 85.070313 0 74.4375 87.753906 114.542969 144.023437 66.140625 14.183594-12.203125 24.035157-28.621094 28.164063-46.695312l56.988281-7.730469c5.929687-.804688 10.234375-5.730469 10.234375-11.714844s-4.304688-10.910156-10.234375-11.714844zm-127.453125 25.070313c-2.195312 1.148437-4.636719 1.722656-6.945312 1.730468-.015626 0-.035157.003907-.050782.003907-8.320312 0-15.089844-6.769531-15.089844-15.089844s6.769532-15.089844 15.089844-15.089844c15.355469 0 21.246094 20.992188 6.996094 28.445313zm21.007812-2.339844c2.691407-6.816406 2.84375-14.796875 0-22.027344 55.921876 7.582032 25.277344 3.425782 81.214844 11.011719-9.914062 1.34375-68.789062 9.328125-81.214844 11.015625zm0 0"/><path d="m256.476562 512c134.832032 0 246.046876-104.457031 255.339844-237.957031.289063-4.132813-2.828125-7.714844-6.960937-8.003907-4.128907-.277343-7.714844 2.832032-8.003907 6.960938-8.738281 125.609375-114.324218 224-240.375 224-132.875 0-240.976562-108.101562-240.976562-240.976562s108.101562-240.980469 240.976562-240.980469c126.050782 0 231.636719 98.394531 240.375 224 .289063 4.132812 3.875 7.25 8.003907 6.960937 4.132812-.289062 7.25-3.871094 6.960937-8.003906-4.492187-64.519531-33.042968-124.480469-80.394531-168.839844-99.949219-93.621094-257.390625-92.699218-355.949219 5.859375-48.347656 48.347657-74.972656 112.628907-74.972656 181.003907 0 141.480468 114.488281 255.976562 255.976562 255.976562zm0 0"/></svg>