<svg height="512pt" viewBox="0 -36 512 512" width="512pt" xmlns="http://www.w3.org/2000/svg"><path d="m105.652344 265.566406h300.695312v35.945313h-300.695312zm0 0" fill="#393f5b"/><path d="m295.46875 360.320312h-78.9375c-20.609375 0-37.3125-16.703124-37.3125-37.3125v-78.9375c0-20.605468 16.703125-37.3125 37.3125-37.3125h78.9375c20.609375 0 37.3125 16.707032 37.3125 37.3125v78.9375c0 20.609376-16.703125 37.3125-37.3125 37.3125zm0 0" fill="#4c5275"/><path d="m476.570312 433.222656h-71.679687c-15.367187 0-27.828125-12.457031-27.828125-27.824218v-243.714844c0-15.371094 12.460938-27.828125 27.828125-27.828125h71.679687c15.371094 0 27.828126 12.457031 27.828126 27.828125v243.710937c0 15.371094-12.457032 27.828125-27.828126 27.828125zm0 0" fill="#c5f3ff"/><path d="m107.109375 433.222656h-71.679687c-15.371094 0-27.828126-12.457031-27.828126-27.824218v-243.714844c0-15.371094 12.457032-27.828125 27.828126-27.828125h71.679687c15.367187 0 27.828125 12.457031 27.828125 27.828125v243.710937c0 15.371094-12.460938 27.828125-27.828125 27.828125zm0 0" fill="#c5f3ff"/><path d="m244.570312 308.472656c0 11.386719-9.234374 20.617188-20.621093 20.617188s-20.617188-9.230469-20.617188-20.617188c0-11.386718 9.230469-20.617187 20.617188-20.617187s20.621093 9.230469 20.621093 20.617187zm0 0" fill="#ffdb45"/><path d="m296.945312 247.984375c0 11.386719-9.230468 20.617187-20.617187 20.617187s-20.621094-9.230468-20.621094-20.617187 9.234375-20.617187 20.621094-20.617187 20.617187 9.230468 20.617187 20.617187zm0 0" fill="#ffdb45"/><path d="m476.570312 126.253906h-71.679687c-19.535156 0-35.429687 15.894532-35.429687 35.429688v96.28125h-29.078126v-13.894532c0-24.765624-20.148437-44.914062-44.914062-44.914062h-31.867188v-23.808594c0-4.199218-3.402343-7.601562-7.601562-7.601562s-7.601562 3.402344-7.601562 7.601562v23.808594h-31.867188c-24.765625 0-44.914062 20.148438-44.914062 44.914062v13.894532h-29.078126v-96.28125c0-19.535156-15.894531-35.429688-35.429687-35.429688h-71.679687c-19.535157 0-35.429688 15.894532-35.429688 35.429688v243.710937c0 19.535157 15.894531 35.429688 35.429688 35.429688h71.679687c19.535156 0 35.429687-15.894531 35.429687-35.429688v-96.28125h29.078126v13.894531c0 24.765626 20.148437 44.914063 44.914062 44.914063h1.148438c4.195312 0 7.601562-3.402344 7.601562-7.601563 0-4.199218-3.40625-7.601562-7.601562-7.601562h-1.148438c-16.382812 0-29.710938-13.328125-29.710938-29.710938v-78.9375c0-16.382812 13.328126-29.710937 29.710938-29.710937h78.9375c16.382812 0 29.710938 13.328125 29.710938 29.710937v78.9375c0 16.382813-13.328126 29.710938-29.710938 29.710938h-11.539062v-77.5625c11.878906-3.328125 20.617187-14.246094 20.617187-27.171875 0-15.558594-12.660156-28.21875-28.21875-28.21875-15.5625 0-28.222656 12.660156-28.222656 28.21875 0 12.925781 8.742187 23.84375 20.617187 27.171875v25.714844h-17.601562c-3.328125-11.878906-14.242188-20.617188-27.167969-20.617188-15.5625 0-28.222656 12.65625-28.222656 28.21875s12.660156 28.21875 28.222656 28.21875c12.925781 0 23.839844-8.738281 27.167969-20.617187h17.601562v36.644531h-20.632812c-4.199219 0-7.601563 3.402344-7.601563 7.601562 0 4.199219 3.402344 7.601563 7.601563 7.601563h47.378906c24.765625 0 44.914062-20.148437 44.914062-44.914063v-13.894531h29.078126v96.28125c0 19.535157 15.894531 35.429688 35.429687 35.429688h71.679687c19.535157 0 35.429688-15.894531 35.429688-35.429688v-169.972656c0-4.199219-3.402344-7.601563-7.601562-7.601563-4.199219 0-7.601563 3.402344-7.601563 7.601563v10.207031h-48.464844v-45.410156h48.464844v4.789062c0 4.199219 3.402344 7.605469 7.601563 7.605469 4.199218 0 7.601562-3.40625 7.601562-7.605469v-43.324218c0-19.535156-15.894531-35.429688-35.429688-35.429688zm-397.699218 134.582032h48.464844v45.410156h-48.464844zm-15.203125 45.410156h-48.464844v-45.410156h48.464844zm63.664062-60.617188h-48.460937v-45.410156h48.464844v45.410156zm-63.664062 0h-48.464844v-45.410156h48.464844zm-48.464844 75.820313h48.464844v45.410156h-48.464844zm63.667969 0h48.464844v45.410156h-48.464844zm48.460937-159.765625v23.332031h-48.460937v-43.558594h28.238281c11.152344 0 20.222656 9.074219 20.222656 20.226563zm-91.902343-20.226563h28.238281v43.558594h-48.464844v-23.332031c0-11.152344 9.074219-20.226563 20.226563-20.226563zm-20.226563 263.9375v-23.332031h48.464844v43.558594h-28.238281c-11.152344 0-20.226563-9.074219-20.226563-20.226563zm91.90625 20.226563h-28.238281v-43.558594h48.464844v23.332031c-.003907 11.152344-9.074219 20.226563-20.226563 20.226563zm35.433594-131.710938v-20.742187h29.074219v20.742187zm81.410156 27.578125c-7.179687 0-13.015625-5.839843-13.015625-13.015625 0-7.175781 5.835938-13.015625 13.015625-13.015625 7.175781 0 13.015625 5.839844 13.015625 13.015625 0 7.175782-5.839844 13.015625-13.015625 13.015625zm39.359375-73.503906c0-7.175781 5.835938-13.015625 13.015625-13.015625 7.175781 0 13.015625 5.839844 13.015625 13.015625 0 7.179687-5.839844 13.015625-13.015625 13.015625-7.179687 0-13.015625-5.835938-13.015625-13.015625zm141.578125-106.527344h28.238281v43.558594h-48.464844v-23.332031c.003907-11.152344 9.074219-20.226563 20.226563-20.226563zm91.90625 225.402344h-48.464844v-45.410156h48.464844zm-63.667969 0h-48.460937v-45.410156h48.460937zm-48.460937-60.613281v-45.410156h48.460937v45.410156zm-44.285157-12.335938v-20.742187h29.078126v20.742187zm44.285157 111.484375v-23.332031h48.460937v43.558594h-28.238281c-11.152344 0-20.222656-9.074219-20.222656-20.226563zm91.902343 20.226563h-28.238281v-43.558594h48.464844v23.332031c0 11.152344-9.074219 20.226563-20.226563 20.226563zm20.226563-164.785156v45.410156h-48.464844v-45.410156zm-63.667969-15.207032h-48.460937v-45.410156h48.460937zm15.203125-60.613281v-43.558594h28.238281c11.152344 0 20.226563 9.074219 20.226563 20.226563v23.332031zm0 0"/><path d="m164.488281 53.046875c24.402344-24.402344 56.902344-37.84375 91.511719-37.84375s67.109375 13.441406 91.511719 37.84375c1.484375 1.484375 3.429687 2.226563 5.375 2.226563 1.945312 0 3.894531-.742188 5.378906-2.226563 2.96875-2.96875 2.96875-7.78125 0-10.75-27.273437-27.277344-63.59375-42.296875-102.265625-42.296875s-74.992188 15.019531-102.265625 42.296875c-2.96875 2.96875-2.96875 7.78125 0 10.75s7.785156 2.96875 10.753906 0zm0 0"/><path d="m328.152344 80.007812c1.945312 0 3.890625-.742187 5.375-2.226562 2.96875-2.96875 2.96875-7.78125 0-10.75-20.675782-20.675781-48.210938-32.066406-77.527344-32.066406s-56.851562 11.390625-77.527344 32.066406c-2.96875 2.96875-2.96875 7.78125 0 10.75s7.78125 2.96875 10.75 0c17.804688-17.804688 41.519532-27.609375 66.777344-27.609375 25.253906 0 48.96875 9.804687 66.777344 27.609375 1.484375 1.484375 3.429687 2.226562 5.375 2.226562zm0 0"/><path d="m303.417969 104.746094c1.945312 0 3.890625-.742188 5.375-2.226563 2.96875-2.96875 2.96875-7.785156 0-10.75-29.109375-29.109375-76.476563-29.113281-105.585938 0-2.96875 2.96875-2.96875 7.78125 0 10.75s7.785157 2.96875 10.75 0c11.210938-11.210937 26.140625-17.382812 42.042969-17.382812s30.832031 6.171875 42.039062 17.382812c1.484376 1.484375 3.429688 2.226563 5.378907 2.226563zm0 0"/><path d="m227.945312 116.503906c-2.96875 2.96875-2.96875 7.78125 0 10.75 2.96875 2.972656 7.78125 2.96875 10.75 0 9.542969-9.539062 25.066407-9.539062 34.609376 0 1.484374 1.484375 3.429687 2.226563 5.375 2.226563 1.945312 0 3.890624-.742188 5.375-2.226563 2.96875-2.96875 2.96875-7.78125 0-10.75-15.46875-15.46875-40.640626-15.46875-56.109376 0zm0 0"/></svg>