<svg height="512pt" viewBox="0 0 512 512" width="512pt" xmlns="http://www.w3.org/2000/svg"><path d="m272.03125 152.308594h-32.0625c-12.976562 0-23.53125 10.554687-23.53125 23.53125v8.53125h-48.613281c-12.976563 0-23.535157 10.558594-23.535157 23.53125v112.226562c0 12.976563 10.558594 23.53125 23.535157 23.53125h176.351562c12.976563 0 23.535157-10.554687 23.535157-23.53125v-112.226562c0-12.976563-10.558594-23.53125-23.535157-23.53125h-48.613281v-8.53125c0-12.976563-10.554688-23.53125-23.53125-23.53125zm24.050781 96.191406c-4.144531 0-7.5 3.359375-7.5 7.5v8.53125h-65.160156v-8.53125c0-4.140625-3.359375-7.5-7.5-7.5-4.144531 0-7.5 3.359375-7.5 7.5v8.53125h-8.535156c-4.703125 0-8.53125-3.828125-8.53125-8.53125v-56.628906h129.289062v56.628906c0 4.703125-3.828125 8.53125-8.53125 8.53125h-8.53125v-8.53125c0-4.140625-3.359375-7.5-7.5-7.5zm-64.644531-72.660156c0-4.707032 3.828125-8.53125 8.53125-8.53125h32.0625c4.707031 0 8.53125 3.828125 8.53125 8.53125v8.53125h-49.128906v-8.53125zm121.273438 32.0625v112.226562c0 4.707032-3.828126 8.53125-8.535157 8.53125h-176.351562c-4.707031 0-8.535157-3.828125-8.535157-8.53125v-112.226562c0-4.703125 3.828126-8.53125 8.535157-8.53125h8.53125v56.628906c0 12.976562 10.554687 23.53125 23.53125 23.53125h8.53125v8.53125c0 4.144531 3.359375 7.5 7.5 7.5 4.144531 0 7.5-3.355469 7.5-7.5v-8.53125h65.160156v8.53125c0 4.144531 3.359375 7.5 7.5 7.5 4.144531 0 7.5-3.355469 7.5-7.5v-8.53125h8.535156c12.976563 0 23.53125-10.554688 23.53125-23.53125v-56.628906h8.53125c4.707031 0 8.535157 3.828125 8.535157 8.53125zm0 0"/><path d="m504.5 248.5h-24.703125c-1.863281-57.003906-24.929687-110.324219-65.449219-150.847656-40.523437-40.519532-93.84375-63.585938-150.847656-65.449219v-24.703125c0-4.140625-3.359375-7.5-7.5-7.5s-7.5 3.359375-7.5 7.5v96.191406c0 4.144532 3.359375 7.5 7.5 7.5s7.5-3.355468 7.5-7.5v-56.476562c109.253906 3.875 197.410156 92.027344 201.285156 201.285156h-56.480468c-4.140626 0-7.5 3.359375-7.5 7.5s3.359374 7.5 7.5 7.5h56.484374c-1.710937 47.707031-19.6875 93.453125-51.074218 129.546875-32.707032 37.605469-77.722656 62.328125-126.75 69.609375-4.097656.609375-6.925782 4.425781-6.316406 8.523438.554687 3.722656 3.753906 6.398437 7.410156 6.398437.367187 0 .738281-.027344 1.113281-.082031 52.558594-7.808594 100.808594-34.304688 135.859375-74.605469 33.765625-38.820313 53.046875-88.0625 54.765625-139.390625h24.703125c4.140625 0 7.5-3.355469 7.5-7.5 0-4.140625-3.359375-7.5-7.5-7.5zm0 0"/><path d="m256 400.808594c-4.140625 0-7.5 3.355468-7.5 7.5v56.476562c-109.253906-3.875-197.410156-92.03125-201.285156-201.285156h56.480468c4.140626 0 7.5-3.359375 7.5-7.5s-3.359374-7.5-7.5-7.5h-56.484374c1.710937-47.707031 19.6875-93.453125 51.074218-129.546875 32.707032-37.605469 77.722656-62.328125 126.75-69.609375 4.097656-.609375 6.925782-4.425781 6.316406-8.523438-.609374-4.097656-4.417968-6.929687-8.523437-6.316406-52.558594 7.808594-100.808594 34.304688-135.863281 74.605469-33.761719 38.820313-53.042969 88.0625-54.761719 139.390625h-24.703125c-4.140625 0-7.5 3.355469-7.5 7.5 0 4.140625 3.359375 7.5 7.5 7.5h24.703125c1.863281 57.003906 24.929687 110.324219 65.449219 150.84375 40.523437 40.523438 93.84375 63.589844 150.847656 65.453125v24.703125c0 4.140625 3.359375 7.5 7.5 7.5s7.5-3.359375 7.5-7.5v-96.191406c0-4.144532-3.359375-7.5-7.5-7.5zm0 0"/></svg>