<svg height="511pt" viewBox="0 0 511.99975 511" width="511pt" xmlns="http://www.w3.org/2000/svg"><path d="m509.792969 466.128906-333.832031-333.832031c-1.414063-1.414063-3.328126-2.207031-5.328126-2.207031-1.996093 0-3.914062.792968-5.324218 2.207031l-31.953125 31.953125c-2.941407 2.941406-2.941407 7.710938 0 10.652344l84.59375 84.59375h.003906v.003906l100 99.996094c2.941406 2.941406 7.710937 2.941406 10.648437 0 2.941407-2.941406 2.941407-7.707032 0-10.648438l-94.671874-94.675781 21.300781-21.300781 238.585937 238.585937-21.300781 21.300781-124.199219-124.199218c-2.941406-2.941406-7.710937-2.941406-10.652344 0-2.941406 2.941406-2.941406 7.710937 0 10.652344l129.523438 129.523437c1.472656 1.472656 3.398438 2.207031 5.328125 2.207031 1.925781 0 3.855469-.734375 5.324219-2.207031l31.953125-31.953125c2.941406-2.941406 2.941406-7.710938 0-10.652344zm-286.515625-222.605468-73.945313-73.949219 21.300781-21.300781 73.945313 73.945312zm0 0"/><path d="m204.097656 95.730469 25.65625 14.03125 14.03125 25.65625c1.320313 2.414062 3.855469 3.917969 6.609375 3.917969 2.753907 0 5.285157-1.503907 6.605469-3.917969l14.03125-25.65625 25.65625-14.03125c2.414062-1.320313 3.917969-3.855469 3.917969-6.605469 0-2.753906-1.503907-5.289062-3.917969-6.609375l-25.65625-14.03125-14.03125-25.65625c-1.320312-2.414063-3.851562-3.917969-6.605469-3.917969-2.753906 0-5.289062 1.503906-6.609375 3.917969l-14.03125 25.65625-25.65625 14.03125c-2.414062 1.320313-3.917968 3.855469-3.917968 6.609375s1.503906 5.285156 3.917968 6.605469zm34.820313-15.085938c1.261719-.691406 2.300781-1.730469 2.992187-2.996093l8.480469-15.507813 8.484375 15.507813c.691406 1.265624 1.730469 2.304687 2.992188 2.996093l15.507812 8.480469-15.507812 8.480469c-1.265626.691406-2.300782 1.730469-2.992188 2.996093l-8.484375 15.507813-8.480469-15.507813c-.691406-1.265624-1.730468-2.304687-2.992187-2.996093l-15.507813-8.480469zm0 0"/><path d="m128.476562 236.5-21.652343-11.839844-11.84375-21.652344c-1.320313-2.414062-3.855469-3.917968-6.609375-3.917968-2.75 0-5.285156 1.503906-6.605469 3.917968l-11.84375 21.652344-21.652344 11.839844c-2.414062 1.320312-3.914062 3.855469-3.914062 6.609375s1.5 5.289063 3.914062 6.609375l21.652344 11.839844 11.84375 21.652344c1.320313 2.414062 3.855469 3.917968 6.605469 3.917968 2.753906 0 5.289062-1.503906 6.609375-3.917968l11.84375-21.652344 21.652343-11.839844c2.414063-1.324219 3.917969-3.855469 3.917969-6.609375s-1.503906-5.289063-3.917969-6.609375zm-30.816406 12.902344c-1.265625.6875-2.304687 1.730468-2.992187 2.992187l-6.292969 11.503907-6.292969-11.503907c-.691406-1.261719-1.730469-2.300781-2.996093-2.992187l-11.503907-6.292969 11.507813-6.292969c1.261718-.691406 2.300781-1.730468 2.992187-2.992187l6.292969-11.507813 6.292969 11.503906c.6875 1.265626 1.730469 2.304688 2.992187 2.996094l11.503906 6.292969zm0 0"/><path d="m67.371094 144.542969c1.320312 2.414062 3.855468 3.914062 6.609375 3.914062 2.753906 0 5.285156-1.5 6.609375-3.914062l22.433594-41.019531 41.019531-22.4375c2.414062-1.320313 3.914062-3.855469 3.914062-6.605469 0-2.753907-1.5-5.289063-3.914062-6.609375l-41.019531-22.433594-22.433594-41.019531c-1.324219-2.417969-3.855469-3.917969-6.609375-3.917969-2.753907 0-5.289063 1.503906-6.609375 3.917969l-22.433594 41.019531-41.019531 22.433594c-2.414063 1.320312-3.917969 3.855468-3.917969 6.609375 0 2.75 1.503906 5.285156 3.917969 6.605469l41.019531 22.4375zm-13.269532-86.949219c1.261719-.691406 2.300782-1.730469 2.992188-2.992188l16.886719-30.875 16.882812 30.875c.691407 1.261719 1.730469 2.300782 2.996094 2.992188l30.871094 16.882812-30.871094 16.886719c-1.265625.691407-2.304687 1.730469-2.996094 2.996094l-16.882812 30.871094-16.886719-30.871094c-.6875-1.265625-1.730469-2.304687-2.992188-2.996094l-30.875-16.882812zm0 0"/></svg>