<svg height="512pt" viewBox="0 -61 512 512" width="512pt" xmlns="http://www.w3.org/2000/svg"><path d="m504.5 120.886719c4.140625 0 7.5-3.359375 7.5-7.5v-95.886719c0-9.648438-7.851562-17.5-17.5-17.5h-477c-9.648438 0-17.5 7.851562-17.5 17.5v355.972656c0 9.648438 7.851562 17.5 17.5 17.5h477c9.648438 0 17.5-7.851562 17.5-17.5v-225.566406c0-4.140625-3.359375-7.5-7.5-7.5s-7.5 3.359375-7.5 7.5v225.566406c0 1.378906-1.121094 2.5-2.5 2.5h-477c-1.378906 0-2.5-1.121094-2.5-2.5v-295.445312h132.457031c4.140625 0 7.5-3.355469 7.5-7.5 0-4.140625-3.359375-7.5-7.5-7.5h-132.457031v-45.527344c0-1.378906 1.121094-2.5 2.5-2.5h477c1.378906 0 2.5 1.121094 2.5 2.5v45.527344h-316.332031c-4.144531 0-7.5 3.359375-7.5 7.5s3.355469 7.5 7.5 7.5h316.332031v35.359375c0 4.140625 3.359375 7.5 7.5 7.5zm0 0"/><path d="m47.433594 31.515625c-4.144532 0-7.5 3.355469-7.5 7.5 0 4.140625 3.355468 7.5 7.5 7.5h.113281c4.140625 0 7.5-3.359375 7.5-7.5 0-4.144531-3.359375-7.5-7.5-7.5zm0 0"/><path d="m70.074219 31.515625c-4.140625 0-7.5 3.355469-7.5 7.5 0 4.140625 3.359375 7.5 7.5 7.5h.113281c4.144531 0 7.5-3.359375 7.5-7.5 0-4.144531-3.355469-7.5-7.5-7.5zm0 0"/><path d="m92.71875 31.515625c-4.140625 0-7.5 3.355469-7.5 7.5 0 4.140625 3.359375 7.5 7.5 7.5h.113281c4.140625 0 7.5-3.359375 7.5-7.5 0-4.144531-3.359375-7.5-7.5-7.5zm0 0"/><path d="m464.566406 46.515625c4.144532 0 7.5-3.359375 7.5-7.5 0-4.144531-3.355468-7.5-7.5-7.5h-13.957031c-4.140625 0-7.5 3.355469-7.5 7.5 0 4.140625 3.359375 7.5 7.5 7.5zm0 0"/><path d="m428.800781 259.558594v-142.070313c0-9.648437-7.851562-17.5-17.5-17.5h-36.429687c-4.140625 0-7.5 3.355469-7.5 7.5 0 4.140625 3.359375 7.5 7.5 7.5h36.429687c1.378907 0 2.5 1.121094 2.5 2.5v142.070313c0 1.378906-1.121093 2.5-2.5 2.5h-310.601562c-1.378907 0-2.5-1.121094-2.5-2.5v-142.070313c0-1.378906 1.121093-2.5 2.5-2.5h239.652343c4.140626 0 7.5-3.359375 7.5-7.5 0-4.144531-3.359374-7.5-7.5-7.5h-239.652343c-9.648438 0-17.5 7.851563-17.5 17.5v142.070313c0 9.652344 7.851562 17.5 17.5 17.5h310.601562c9.648438 0 17.5-7.847656 17.5-17.5zm0 0"/><path d="m216.023438 202.023438c-9.648438 0-17.5 7.847656-17.5 17.5v12.070312c0 9.648438 7.851562 17.5 17.5 17.5h79.957031c9.648437 0 17.5-7.851562 17.5-17.5v-12.070312c0-9.652344-7.851563-17.5-17.5-17.5zm82.457031 17.5v12.070312c0 1.378906-1.121094 2.5-2.5 2.5h-79.957031c-1.378907 0-2.5-1.121094-2.5-2.5v-12.070312c0-1.378907 1.121093-2.5 2.5-2.5h79.957031c1.378906 0 2.5 1.121093 2.5 2.5zm0 0"/><path d="m122.65625 323.984375c0 18.992187 15.449219 34.441406 34.441406 34.441406 18.988282 0 34.4375-15.449219 34.4375-34.441406 0-18.988281-15.449218-34.4375-34.4375-34.4375-18.992187 0-34.441406 15.449219-34.441406 34.4375zm53.878906 0c0 10.71875-8.71875 19.441406-19.4375 19.441406s-19.441406-8.722656-19.441406-19.441406 8.722656-19.4375 19.441406-19.4375 19.4375 8.71875 19.4375 19.4375zm0 0"/><path d="m221.558594 323.984375c0 18.992187 15.453125 34.441406 34.441406 34.441406s34.441406-15.449219 34.441406-34.441406c0-18.988281-15.453125-34.4375-34.441406-34.4375s-34.441406 15.449219-34.441406 34.4375zm53.882812 0c0 10.71875-8.722656 19.441406-19.441406 19.441406s-19.441406-8.722656-19.441406-19.441406 8.722656-19.4375 19.441406-19.4375 19.441406 8.71875 19.441406 19.4375zm0 0"/><path d="m320.464844 323.984375c0 18.992187 15.449218 34.441406 34.4375 34.441406 18.992187 0 34.441406-15.449219 34.441406-34.441406 0-18.988281-15.449219-34.4375-34.441406-34.4375-18.988282 0-34.4375 15.449219-34.4375 34.4375zm53.878906 0c0 10.71875-8.722656 19.441406-19.441406 19.441406s-19.4375-8.722656-19.4375-19.441406 8.71875-19.4375 19.4375-19.4375 19.441406 8.71875 19.441406 19.4375zm0 0"/><path d="m357.5 180.820312c0-4.140624-3.359375-7.5-7.5-7.5h-188c-4.140625 0-7.5 3.359376-7.5 7.5 0 4.140626 3.359375 7.5 7.5 7.5h188c4.140625 0 7.5-3.355468 7.5-7.5zm0 0"/><path d="m350 151.320312h-80c-4.140625 0-7.5 3.359376-7.5 7.5 0 4.140626 3.359375 7.5 7.5 7.5h80c4.140625 0 7.5-3.359374 7.5-7.5 0-4.140624-3.359375-7.5-7.5-7.5zm0 0"/><path d="m154.5 158.820312c0 4.140626 3.359375 7.5 7.5 7.5h80c4.140625 0 7.5-3.359374 7.5-7.5 0-4.140624-3.359375-7.5-7.5-7.5h-80c-4.140625 0-7.5 3.359376-7.5 7.5zm0 0"/><path d="m296.636719 144.320312c4.140625 0 7.5-3.359374 7.5-7.5 0-4.140624-3.359375-7.5-7.5-7.5h-81.273438c-4.140625 0-7.5 3.359376-7.5 7.5 0 4.140626 3.359375 7.5 7.5 7.5zm0 0"/></svg>